<?xml version="1.0" encoding="utf-8"?>
<!-- Generator: Adobe Illustrator 15.0.0, SVG Export Plug-In . SVG Version: 6.00 Build 0)  -->
<!DOCTYPE svg PUBLIC "-//W3C//DTD SVG 1.1//EN" "http://www.w3.org/Graphics/SVG/1.1/DTD/svg11.dtd">
<svg version="1.1" xmlns="http://www.w3.org/2000/svg" xmlns:xlink="http://www.w3.org/1999/xlink" x="0px" y="0px" width="64px"
	 height="64px" viewBox="0 0 64 64" enable-background="new 0 0 64 64" xml:space="preserve">
<g id="grid" display="none">
	<rect x="-78" y="6" display="inline" opacity="0.6" fill="#F27FB2" width="52" height="52"/>
	<rect x="-82" y="18.75" display="inline" opacity="0.5" fill="#F47B25" width="60" height="26.5"/>
	<rect x="-65.25" y="2" display="inline" opacity="0.5" fill="#F47B25" width="26.5" height="60"/>
	<circle display="inline" opacity="0.6" fill="#F27FB2" cx="-52" cy="32" r="28"/>
</g>
<g id="temp" display="none">
	<path display="inline" fill="#FFFFFF" stroke="#000000" stroke-linejoin="round" stroke-miterlimit="10" d="M-48.973,40.903V9.724
		c0-4.068-3.297-7.366-7.365-7.366c-4.069,0-7.367,3.297-7.367,7.366v31.181c-2.541,2.112-4.159,5.298-4.159,8.86
		c0,6.364,5.16,11.524,11.526,11.524s11.526-5.16,11.526-11.524C-44.812,46.203-46.432,43.018-48.973,40.903z"/>
	<rect x="-60.885" y="17.754" display="inline" width="9.094" height="29.341"/>
	<circle display="inline" cx="-56.338" cy="49.669" r="8.236"/>
	<g display="inline">
		<path d="M-35.761,9.155h6.938l-1.695,20.067h-3.546L-35.761,9.155z"/>
		<circle cx="-32.292" cy="34.727" r="3.197"/>
	</g>
	
		<line display="inline" fill="none" stroke="#000000" stroke-width="2" stroke-miterlimit="10" x1="-37.67" y1="36.65" x2="-51.791" y2="36.65"/>
	
		<line display="inline" fill="none" stroke="#000000" stroke-width="2" stroke-miterlimit="10" x1="-37.67" y1="10.11" x2="-51.791" y2="10.11"/>
	
		<line display="inline" fill="none" stroke="#000000" stroke-width="2" stroke-miterlimit="10" x1="-37.67" y1="23.38" x2="-51.791" y2="23.38"/>
</g>
<g id="temp_copy">
	<path fill="#FFFFFF" stroke="#000000" stroke-width="2" stroke-linejoin="round" stroke-miterlimit="10" d="M-48.973,40.903V9.724
		c0-4.068-3.297-7.366-7.365-7.366c-4.069,0-7.367,3.297-7.367,7.366v31.181c-2.541,2.112-4.159,5.298-4.159,8.86
		c0,6.364,5.16,11.524,11.526,11.524s11.526-5.16,11.526-11.524C-44.812,46.203-46.432,43.018-48.973,40.903z"/>
	<path fill="none" d="M-51.791,42.804V17.754h-9.094v25.049c-2.222,1.476-3.689,3.998-3.689,6.865c0,4.548,3.688,8.236,8.236,8.236
		c4.547,0,8.236-3.688,8.236-8.236C-48.102,46.802-49.568,44.278-51.791,42.804z"/>
	<line fill="none" stroke="#000000" stroke-width="2" stroke-miterlimit="10" x1="-37.67" y1="36.65" x2="-56.546" y2="36.65"/>
	<line fill="none" stroke="#000000" stroke-width="2" stroke-miterlimit="10" x1="-37.67" y1="10.11" x2="-56.546" y2="10.11"/>
	
		<line fill="none" stroke="#000000" stroke-width="1.8035" stroke-miterlimit="10" x1="-37.67" y1="23.38" x2="-56.546" y2="23.38"/>
</g>
<g id="holding-time">
	<circle fill="#FFFFFF" stroke="#000000" stroke-width="2" stroke-miterlimit="10" cx="32" cy="32" r="26"/>
	<line fill="#FFFFFF" stroke="#000000" stroke-width="2" stroke-miterlimit="10" x1="32" y1="6" x2="32" y2="11"/>
	<line fill="#FFFFFF" stroke="#000000" stroke-width="2" stroke-miterlimit="10" x1="32" y1="53.5" x2="32" y2="58.5"/>
	<line fill="#FFFFFF" stroke="#000000" stroke-width="2" stroke-miterlimit="10" x1="5.75" y1="32" x2="10.75" y2="32"/>
	<line fill="#FFFFFF" stroke="#000000" stroke-width="2" stroke-miterlimit="10" x1="53.25" y1="32" x2="58.25" y2="32"/>
	<circle fill="#FFFFFF" stroke="#000000" stroke-width="2" stroke-miterlimit="10" cx="32" cy="32" r="1.544"/>
	<path fill="#FFFFFF" stroke="#000000" stroke-width="2" stroke-miterlimit="10" d="M16.967,43.962"/>
	<line fill="#FFFFFF" stroke="#000000" stroke-width="2" stroke-miterlimit="10" x1="16.967" y1="47.09" x2="34.563" y2="29.385"/>
	<path fill="none" stroke="#000000" stroke-width="2" stroke-miterlimit="10" d="M32,12.5"/>
	<path fill="none" stroke="#000000" stroke-width="2" stroke-miterlimit="10" d="M23.166,41.836
		c2.485,2.467,5.906,3.993,9.684,3.993c7.593,0,13.747-6.154,13.747-13.746c0-7.592-6.815-13.35-14.407-13.35"/>
	<path fill="none" stroke="#000000" stroke-width="2" stroke-miterlimit="10" d="M18.263,45.835"/>
</g>
<g id="Layer_12">
</g>
<g id="Layer_7" display="none">
	<rect x="-57.916" y="17.41" display="inline" width="12.333" height="44.046"/>
	<polygon display="inline" points="-51.749,45.935 -79.498,8.055 -24,8.055 	"/>
	<polygon display="inline" points="-182.084,111.055 -237.582,111.055 -216,140.516 -216,164.456 -203.667,164.456 
		-203.667,140.518 	"/>
</g>
<g id="contamination">
	<path stroke="#000000" stroke-width="2" stroke-miterlimit="10" d="M127.544,49.162c-0.003,2.948-6.046,5.339-13.5,5.338
		c-7.455,0.001-13.498-2.39-13.498-5.338s6.042-5.338,13.498-5.338C121.498,43.824,127.541,46.214,127.544,49.162z"/>
	<path stroke="#000000" stroke-width="2" stroke-miterlimit="10" d="M143,46.358c-0.003,3.452-6.686,6.251-14.932,6.25
		c-8.247,0.001-14.931-2.798-14.931-6.25s6.683-6.25,14.931-6.25C136.314,40.108,142.997,42.906,143,46.358z"/>
	<ellipse stroke="#000000" stroke-width="2" stroke-miterlimit="10" cx="126.544" cy="52.608" rx="11.015" ry="5.521"/>
	<path fill="none" stroke="#000000" stroke-miterlimit="10" d="M121.772-195.413c-7.709,0-13.959,3.638-13.959,8.125v35.875
		c0,4.487,6.25,8.125,13.959,8.125s13.959-3.638,13.959-8.125v-35.875C135.731-191.775,129.481-195.413,121.772-195.413z"/>
	<g>
		<path fill="#FFFFFF" stroke="#000000" stroke-width="2" stroke-miterlimit="10" d="M129.354,29.141L108.517,8.303
			c-2.607-2.606-8.351-1.088-12.829,3.389c-4.477,4.478-5.994,10.221-3.389,12.828l20.839,20.838
			c-2.606-2.605-1.089-8.35,3.389-12.827C121.005,28.053,126.747,26.536,129.354,29.141"/>
	</g>
	
		<ellipse transform="matrix(0.7071 -0.7071 0.7071 0.7071 9.1481 96.8012)" fill="#FFFFFF" stroke="#000000" stroke-width="2" stroke-miterlimit="10" cx="121.418" cy="37.358" rx="11.467" ry="6.675"/>
	<g>
		<path d="M95.256,24.35l21.061,21.062c2.634,2.633,6.838-0.553,11.846-5.561l-27.193-27.925
			C95.16,15.186,92.621,21.715,95.256,24.35z"/>
	</g>
</g>
<g id="contamination_copy">
	<path fill="#FFFFFF" stroke="#000000" stroke-width="2" stroke-miterlimit="10" d="M143,46.358
		c-0.003-3.452-6.686-6.25-14.932-6.25c-6.098,0-11.33,1.531-13.65,3.724c-0.125-0.002-0.248-0.008-0.374-0.008
		c-7.456,0-13.498,2.39-13.498,5.338s6.043,5.339,13.498,5.338c0.72,0,1.421-0.028,2.11-0.071c1.502,2.154,5.58,3.702,10.39,3.701
		c6.082,0.001,11.013-2.472,11.015-5.521c0-0.456-0.123-0.897-0.331-1.321C140.734,50.144,142.998,48.363,143,46.358z"/>
	<path fill="none" stroke="#000000" stroke-miterlimit="10" d="M311.064-169.351c-7.709,0-13.959,3.638-13.959,8.125v35.875
		c0,4.487,6.25,8.125,13.959,8.125s13.959-3.638,13.959-8.125v-35.875C325.023-165.713,318.773-169.351,311.064-169.351z"/>
	<g>
		<path fill="#FFFFFF" stroke="#000000" stroke-width="2" stroke-miterlimit="10" d="M129.354,29.141L108.517,8.303
			c-2.607-2.606-8.351-1.088-12.829,3.389c-4.477,4.478-5.994,10.221-3.389,12.828l20.839,20.838
			c-2.606-2.605-1.089-8.35,3.389-12.827C121.005,28.053,126.747,26.536,129.354,29.141"/>
	</g>
	
		<ellipse transform="matrix(0.7071 -0.7071 0.7071 0.7071 9.1481 96.8012)" fill="#FFFFFF" stroke="#000000" stroke-width="2" stroke-miterlimit="10" cx="121.418" cy="37.358" rx="11.467" ry="6.675"/>
	<g>
		<path fill="#FFFFFF" stroke="#000000" stroke-miterlimit="10" d="M236.987-133.443l-20.837-20.837
			c-2.607-2.606-8.351-1.088-12.829,3.389c-4.477,4.478-5.994,10.221-3.389,12.828l20.839,20.838
			c-2.606-2.605-1.089-8.35,3.389-12.827C228.639-134.531,234.381-136.049,236.987-133.443"/>
	</g>
	
		<ellipse transform="matrix(0.7071 -0.7071 0.7071 0.7071 155.6432 125.2889)" fill="#FFFFFF" stroke="#000000" stroke-miterlimit="10" cx="229.052" cy="-125.226" rx="11.467" ry="6.675"/>
	<g>
		<path d="M202.89-138.234l21.061,21.063c2.634,2.633,6.838-0.553,11.846-5.561l-27.193-27.925
			C202.794-147.398,200.255-140.869,202.89-138.234z"/>
	</g>
	<g>
		<path fill="#FFFFFF" stroke="#000000" stroke-miterlimit="10" d="M236.987-133.443l-20.837-20.837
			c-2.607-2.606-8.351-1.088-12.829,3.389c-4.477,4.478-5.994,10.221-3.389,12.828l20.839,20.838
			c-2.606-2.605-1.089-8.35,3.389-12.827C228.639-134.531,234.381-136.049,236.987-133.443"/>
	</g>
	
		<ellipse transform="matrix(0.7071 -0.7071 0.7071 0.7071 155.6432 125.2889)" fill="#FFFFFF" stroke="#000000" stroke-miterlimit="10" cx="229.052" cy="-125.226" rx="11.467" ry="6.675"/>
</g>
<g id="hygiene" display="none">
	<path display="inline" d="M215.467,4.658c-1.701,0-3.078,1.378-3.078,3.079v16.978c0,0.225,0.028,0.443,0.074,0.653l-1.701,0.001
		c0.045-0.212,0.073-0.43,0.073-0.654V7.736c-0.002-1.7-1.381-3.078-3.08-3.078c-1.701,0-3.078,1.378-3.078,3.078l-0.002,16.979
		c0,0.223,0.028,0.441,0.074,0.653l-1.697-0.001c0.044-0.21,0.071-0.429,0.071-0.653V7.737c0-1.701-1.379-3.079-3.079-3.079
		s-3.079,1.379-3.079,3.079v16.978c0,0.225,0.027,0.442,0.072,0.652h-1.698c0.045-0.211,0.072-0.429,0.073-0.653l-0.001-16.977
		c-0.001-1.7-1.378-3.078-3.077-3.079c-1.701,0-3.079,1.378-3.079,3.079v16.977c0,0.224,0.027,0.443,0.073,0.653h-0.072
		l-0.001,18.251l-8.608-8.609c-1.725-1.723-4.099-2.146-5.3-0.943c-1.202,1.202-0.777,3.574,0.946,5.299L193.52,56.59
		c0.492,0.491,1.04,0.865,1.596,1.139c2.158,1.475,4.764,2.341,7.572,2.341h2.427c7.416-0.002,13.431-6.015,13.433-13.433
		l-0.002-21.269l-0.071-0.001c0.043-0.211,0.071-0.429,0.071-0.653V7.737C218.545,6.037,217.166,4.658,215.467,4.658z"/>
	<g display="inline">
		<path fill="#FFFFFF" stroke="#000000" stroke-width="2" stroke-miterlimit="10" d="M211.753,46.133
			c-4.423,4.425-11.595,4.425-16.019,0l-8.569-8.566c-4.424-4.424-4.423-11.597,0.001-16.021l0,0c4.424-4.423,11.596-4.424,16.02,0
			l8.565,8.568C216.177,34.538,216.178,41.712,211.753,46.133L211.753,46.133z"/>
		<path fill="#FFFFFF" d="M206.653,41.033c-2.588,2.59-6.785,2.59-9.375,0l-5.014-5.014c-2.589-2.589-2.589-6.786,0-9.375l0,0
			c2.59-2.588,6.786-2.589,9.374,0l5.015,5.013C209.244,34.247,209.244,38.444,206.653,41.033L206.653,41.033z"/>
	</g>
	<circle display="inline" fill="#FFFFFF" stroke="#000000" stroke-miterlimit="10" cx="189.911" cy="43.389" r="3.704"/>
	<circle display="inline" fill="#FFFFFF" stroke="#000000" stroke-miterlimit="10" cx="209.847" cy="26.975" r="3.706"/>
	<path display="inline" fill="#FFFFFF" stroke="#000000" stroke-miterlimit="10" d="M209,43.94c0,1.659-1.349,3.007-3.008,3.007
		c-1.663,0.003-3.011-1.346-3.01-3.008c0-1.66,1.347-3.008,3.008-3.008S209,42.276,209,43.94z"/>
	<circle display="inline" fill="#FFFFFF" stroke="#000000" stroke-miterlimit="10" cx="196.005" cy="26.531" r="3.705"/>
	<circle display="inline" fill="#FFFFFF" stroke="#000000" stroke-miterlimit="10" cx="183.178" cy="29.634" r="3.008"/>
</g>
<g id="hygiene_copy" display="none">
	<path display="inline" fill="none" stroke="#EF60A1" stroke-width="2" stroke-miterlimit="10" d="M215.467,4.658
		c-1.701,0-3.078,1.378-3.078,3.079v16.978c0,0.225-1.554,0.224-1.554,0V7.736c-0.002-1.7-1.381-3.078-3.08-3.078
		c-1.701,0-3.078,1.378-3.078,3.078l-0.002,16.979c0,0.223-1.552,0.224-1.552-0.001V7.737c0-1.701-1.379-3.079-3.079-3.079
		s-3.079,1.379-3.079,3.079v16.978c0,0.225-1.554,0.223-1.553-0.001l-0.001-16.977c-0.001-1.7-1.378-3.078-3.077-3.079
		c-1.701,0-3.079,1.378-3.079,3.079v35.881l-8.608-8.609c-1.725-1.723-4.099-2.146-5.3-0.943c-1.202,1.202-0.777,3.574,0.946,5.299
		L193.52,56.59c0.492,0.491,1.04,0.865,1.596,1.139c2.158,1.475,4.764,2.341,7.572,2.341h2.427
		c7.416-0.002,13.431-6.015,13.433-13.433l-0.002-38.9C218.545,6.037,217.166,4.658,215.467,4.658z"/>
	<g display="inline">
		<path fill="#FFFFFF" stroke="#EF60A1" stroke-width="2" stroke-miterlimit="10" d="M210.753,47.133
			c-4.423,4.425-11.595,4.425-16.019,0l-8.569-8.566c-4.424-4.424-4.423-11.597,0.001-16.021l0,0c4.424-4.423,11.596-4.424,16.02,0
			l8.565,8.568C215.177,35.538,215.178,42.712,210.753,47.133L210.753,47.133z"/>
		<path fill="#FFFFFF" stroke="#EF60A1" stroke-miterlimit="10" d="M205.653,42.033c-2.588,2.59-6.785,2.59-9.375,0l-5.014-5.014
			c-2.589-2.589-2.589-6.786,0-9.375l0,0c2.59-2.588,6.786-2.589,9.374,0l5.015,5.013C208.244,35.247,208.244,39.444,205.653,42.033
			L205.653,42.033z"/>
	</g>
	
		<circle display="inline" fill="#FFFFFF" stroke="#EF60A1" stroke-width="2" stroke-miterlimit="10" cx="189.911" cy="43.389" r="3.704"/>
	
		<circle display="inline" fill="#FFFFFF" stroke="#EF60A1" stroke-width="2" stroke-miterlimit="10" cx="209.847" cy="26.975" r="3.706"/>
	<path display="inline" fill="#FFFFFF" stroke="#EF60A1" stroke-width="2" stroke-miterlimit="10" d="M209,43.94
		c0,1.659-1.349,3.007-3.008,3.007c-1.663,0.003-3.011-1.346-3.01-3.008c0-1.66,1.347-3.008,3.008-3.008S209,42.276,209,43.94z"/>
	
		<circle display="inline" fill="#FFFFFF" stroke="#EF60A1" stroke-width="2" stroke-miterlimit="10" cx="196.005" cy="26.531" r="3.705"/>
	
		<circle display="inline" fill="#FFFFFF" stroke="#EF60A1" stroke-width="2" stroke-miterlimit="10" cx="183.178" cy="29.634" r="3.008"/>
</g>
<g id="hygiene_copy_2">
	<path fill="none" stroke="#000000" stroke-width="2" stroke-miterlimit="10" d="M215.467,4.658c-1.701,0-3.632,1.377-3.632,3.078
		v16.978c0,0.225,0,0.225,0,0V7.736c-0.002-1.7-2.381-3.078-4.08-3.078c-1.701,0-3.632,1.379-3.632,3.079l-0.002,16.979
		c0,0.223,0.002,0.223,0.002-0.002V7.737c0-1.701-2.379-3.079-4.079-3.079s-3.633,1.379-3.633,3.079v16.978
		c0,0.225,0,0.223,0.001-0.001l-0.001-16.977c-0.001-1.7-2.378-3.078-4.077-3.079c-1.701,0-3.079,1.378-3.079,3.079v35.881
		l-8.608-8.609c-1.725-1.723-4.099-2.146-5.3-0.943c-1.202,1.202-0.777,3.574,0.946,5.299L193.52,56.59
		c0.492,0.491,1.04,0.865,1.596,1.139c2.158,1.475,4.764,2.341,7.572,2.341h2.427c7.416-0.002,14.431-6.015,14.433-13.433
		l-0.002-38.9C219.545,6.037,217.166,4.658,215.467,4.658z"/>
	<g>
		<path fill="#FFFFFF" stroke="#000000" stroke-width="2" stroke-miterlimit="10" d="M210.753,47.133
			c-4.423,4.425-11.595,4.425-16.019,0l-8.569-8.566c-4.424-4.424-4.423-11.597,0.001-16.021l0,0c4.424-4.423,11.596-4.424,16.02,0
			l8.565,8.568C215.177,35.538,215.178,42.712,210.753,47.133L210.753,47.133z"/>
	</g>
	<circle fill="#FFFFFF" stroke="#000000" stroke-width="2" stroke-miterlimit="10" cx="189.911" cy="43.389" r="3.704"/>
	<circle fill="#FFFFFF" stroke="#000000" stroke-width="2" stroke-miterlimit="10" cx="209.847" cy="26.975" r="3.706"/>
	<path fill="#FFFFFF" stroke="#000000" stroke-width="2" stroke-miterlimit="10" d="M209,43.94c0,1.659-1.349,3.007-3.008,3.007
		c-1.663,0.003-3.011-1.346-3.01-3.008c0-1.66,1.347-3.008,3.008-3.008S209,42.276,209,43.94z"/>
	<circle fill="#FFFFFF" stroke="#000000" stroke-width="2" stroke-miterlimit="10" cx="196.005" cy="26.531" r="3.705"/>
	<circle fill="#FFFFFF" stroke="#000000" stroke-width="2" stroke-miterlimit="10" cx="183.178" cy="29.634" r="3.008"/>
</g>
<g id="source" display="none">
	<polygon display="inline" points="277.982,13.854 299.963,32.709 298.823,34.037 295.551,31.231 295.551,58.115 283.624,58.115 
		283.624,44.714 272.345,44.714 272.345,58.115 260.415,58.115 260.415,31.23 257.14,34.037 256,32.709 	"/>
	<circle display="inline" fill="#FFFFFF" cx="277.98" cy="29.671" r="3.664"/>
	<g display="inline">
		<path d="M294.739,58.115h1.75V13.073c0-2.911,2.877-5.278,6.413-5.278c3.535,0,6.411,2.367,6.411,5.278v45.042h1.751V13.073
			c0-3.899-3.661-7.073-8.162-7.073s-8.163,3.173-8.163,7.073V58.115z"/>
	</g>
	<polygon display="inline" points="272.045,57.795 283.325,44.392 283.919,45.034 272.987,58.115 272.342,58.115 	"/>
	<polygon display="inline" points="283.919,57.795 272.639,44.392 272.045,45.034 282.976,58.115 283.622,58.115 	"/>
</g>
<g id="source_copy">
	<polygon fill="none" stroke="#000000" stroke-width="2" stroke-miterlimit="10" points="276.982,13.854 294.551,31.231 
		294.551,58.115 283.624,58.115 283.624,44.714 270.345,44.714 270.345,58.115 259.415,58.115 259.415,31.23 	"/>
	<circle fill="#FFFFFF" stroke="#000000" stroke-width="2" stroke-miterlimit="10" cx="276.98" cy="29.671" r="3.664"/>
	<g>
		<path fill="none" stroke="#000000" stroke-width="2" stroke-miterlimit="10" d="M311.064,58.115V13.073
			c0-3.899-3.661-7.073-8.162-7.073s-8.163,3.173-8.163,7.073v45.042"/>
	</g>
	<line fill="none" stroke="#000000" stroke-width="2" stroke-miterlimit="10" x1="276.982" y1="13.854" x2="256.415" y2="34.23"/>
	<line fill="none" stroke="#000000" stroke-width="2" stroke-miterlimit="10" x1="276.982" y1="13.854" x2="297.55" y2="34.23"/>
	<line fill="none" stroke="#000000" stroke-width="2" stroke-miterlimit="10" x1="270.345" y1="44.714" x2="283.624" y2="58.115"/>
	<line fill="none" stroke="#000000" stroke-width="2" stroke-miterlimit="10" x1="283.624" y1="44.714" x2="270.345" y2="58.115"/>
	
		<rect x="46.397" y="8.937" transform="matrix(0.7071 0.7071 -0.7071 0.7071 22.7204 -32.8552)" fill="none" stroke="#000000" stroke-width="2" stroke-miterlimit="10" width="9.25" height="4.125"/>
	
		<rect x="8.353" y="8.938" transform="matrix(0.7071 -0.7071 0.7071 0.7071 -3.9769 12.3984)" fill="none" stroke="#000000" stroke-width="2" stroke-miterlimit="10" width="9.25" height="4.124"/>
</g>
</svg>
